General
Complete name                    : The Big Lebowski.mkv
Format                           : Matroska
File size                        : 2.05 GiB
Duration                         : 1h 52mn
Overall bit rate                 : 2 616 Kbps


Video
ID                               : 1
Format                           : AVC

Duration                         : 1h 52mn
Bit rate                         : 1 051 Kbps
Nominal bit rate                 : 1 078 Kbps
Width                            : 720 pixels
Height                           : 400 pixels
Display aspect ratio             : 16/9
Frame rate                       : 25.000 fps
Resolution                       : 24 bits
Colorimetry                      : 4:2:0
Scan type                        : Progressive
Bits/(Pixel*Frame)               : 0.146
Stream size                      : 843 MiB (40%)
Writing library                  : x264 core 79


Audio
ID                               : 2
Format                           : DTS
Format/Info                      : Digital Theater Systems
Codec ID                         : A_DTS
Duration                         : 1h 52mn
Bit rate mode                    : Constant
Bit rate                         : 1 510 Kbps
Channel(s)                       : 6 channels
Channel positions                : Front: L C R, Surround: L R, LFE
Sampling rate                    : 48.0 KHz
Resolution                       : 24 bits
Stream size                      : 1.18 GiB (58%)
Language                         : English

Text #1
Language                         : Danish

Text #2
Language                         : Finnish

Text #3
Language                         : Norwegian

Text #4
Language                         : Swedish

